<svg aria-hidden="true" style="width:0;height:0;position:absolute;overflow:hidden" xmlns="http://www.w3.org/2000/svg"><defs><symbol id="icon-close" viewBox="0 0 32 32"><path d="m17.253 16 7.369-7.369a.886.886 0 0 0-.047-1.207.89.89 0 0 0-1.206-.047L16 14.746 8.631 7.368A.892.892 0 0 0 7.369 8.63l7.378 7.369-7.378 7.369a.891.891 0 0 0-.05 1.304.89.89 0 0 0 1.304-.051l7.378-7.369 7.369 7.369a.885.885 0 0 0 1.206-.047.89.89 0 0 0 .047-1.206l-7.369-7.369z"/></symbol><symbol id="icon-bracket" viewBox="0 0 32 32"><path stroke-width="5.333" stroke-linecap="round" stroke-linejoin="round" d="M10.667 5.333 23.867 16l-13.2 10.667"/></symbol><symbol id="icon-arrow" viewBox="0 0 82 32"><path d="M81.414 17.414a2 2 0 0 0 0-2.828L68.686 1.858a2 2 0 1 0-2.828 2.828L77.172 16 65.858 27.314a2 2 0 1 0 2.828 2.828l12.728-12.728zM0 18h80v-4H0v4z"/></symbol><symbol id="icon-pointer" viewBox="0 0 84 32"><path d="M82.643 17.191a2 2 0 0 0 0-2.828L69.915 1.635a2 2 0 1 0-2.828 2.828l11.314 11.314-11.314 11.314a2 2 0 0 0 2.828 2.829l12.728-12.728zM.76 17.777h80.469v-4H.76v4z"/></symbol><symbol id="icon-github" viewBox="0 0 32 32"><path d="M32 16c0 8.837-7.163 16-16 16S0 24.837 0 16 7.163 0 16 0s16 7.163 16 16z"/><path d="M16 6.588c-5.169 0-9.412 4.242-9.412 9.412 0 4.411 3.095 8.419 7.206 9.412v-3.114a2.307 2.307 0 0 1-1.197-.03c-.556-.164-1.008-.535-1.344-1.1-.214-.361-.593-.752-.988-.723l-.097-1.099c.855-.073 1.595.521 2.034 1.259.195.328.419.52.708.605.278.082.578.043.926-.08.088-.698.407-.959.648-1.326v-.001c-2.451-.366-3.428-1.666-3.816-2.693-.514-1.363-.238-3.066.671-4.142.018-.021.05-.076.037-.114-.417-1.258.091-2.299.11-2.41.481.142.559-.143 2.089.786l.264.159c.111.066.076.028.186.02A8.031 8.031 0 0 1 16 11.131a8.016 8.016 0 0 1 2.002.285l.086.009c-.007-.001.023-.005.075-.036 1.911-1.157 1.842-.779 2.355-.946.019.111.519 1.169.107 2.411-.056.171 1.657 1.739.708 4.256-.388 1.027-1.365 2.328-3.816 2.693v.001c.314.479.692.734.69 1.722v3.887c4.111-.993 7.206-5 7.206-9.412 0-5.169-4.242-9.412-9.412-9.412z"/></symbol><symbol id="icon-telegram" viewBox="0 0 32 32"><path d="M32 16c0 8.837-7.163 16-16 16S0 24.837 0 16 7.163 0 16 0s16 7.163 16 16z"/><path d="m12.867 18.375-.318 4.169c.454 0 .651-.182.887-.401l2.13-1.9 4.415 3.017c.81.421 1.38.199 1.599-.695l2.898-12.672.001-.001c.257-1.117-.433-1.554-1.222-1.28L6.225 14.698c-1.162.421-1.145 1.026-.198 1.3l4.355 1.264 10.115-5.907c.476-.294.909-.131.553.163l-8.182 6.857z"/></symbol><symbol id="icon-facebook" viewBox="0 0 32 32"><path d="M16 32c8.837 0 16-7.163 16-16S24.837 0 16 0 0 7.163 0 16s7.163 16 16 16z"/><path d="M20.446 15.982h-2.61v9.619h-3.955v-9.619H12v-3.38h1.881v-2.187c0-1.564.739-4.014 3.99-4.014l2.929.012v3.281h-2.125c-.349 0-.839.175-.839.921v1.989h2.955l-.346 3.377z"/></symbol><symbol id="icon-menu" viewBox="0 0 32 32"><path stroke-width="2" stroke-linecap="round" style="stroke:var(--color4,#fff)" d="M6 10h20M6 16h20M6 22h20"/></symbol><symbol id="icon-ep_close" viewBox="0 0 32 32"><path d="M23.884 6.706 16 14.59 8.116 6.706a.995.995 0 0 0-1.38.031 1 1 0 0 0-.031 1.38l7.88 7.884-7.882 7.882a1.002 1.002 0 0 0-.018 1.427.998.998 0 0 0 1.427-.015l7.886-7.882 7.884 7.884a1 1 0 0 0 1.38-.03 1 1 0 0 0 .03-1.38l-7.884-7.884 7.884-7.886a1.002 1.002 0 0 0 .018-1.427.998.998 0 0 0-1.427.015v.002z"/></symbol><symbol id="icon-scroll-to-top" viewBox="-1 -1 35 35"><path d="M14.422.296C9.027.884 4.424 4.03 1.962 8.813 1.175 10.343.67 11.93.374 13.79c-.092.568-.102.859-.102 2.209 0 1.685.044 2.137.335 3.448 1.136 5.074 4.744 9.304 9.566 11.207 1.161.461 2.268.758 3.618.971.568.092.859.102 2.209.102 1.685 0 2.137-.044 3.448-.335 5.074-1.136 9.304-4.744 11.207-9.566.461-1.161.758-2.268.971-3.618.092-.568.102-.859.102-2.209 0-1.685-.044-2.137-.335-3.448a15.821 15.821 0 0 0-5.934-9.173A15.821 15.821 0 0 0 19.447.605C18.252.338 17.704.28 16.218.265c-.762-.01-1.568.005-1.797.029zm3.282 1.234a14.395 14.395 0 0 1 8.59 4.176c2.394 2.389 3.792 5.312 4.205 8.789.073.626.073 2.384 0 3.011-.413 3.477-1.811 6.4-4.205 8.789-1.831 1.835-4.098 3.147-6.531 3.783-1.326.35-2.37.481-3.763.481s-2.438-.131-3.763-.481c-3.355-.879-6.385-3.049-8.342-5.982-1.345-2.01-2.093-4.079-2.394-6.589-.073-.626-.073-2.384 0-3.011.413-3.477 1.811-6.4 4.205-8.789 2.583-2.588 5.88-4.05 9.615-4.268.5-.029 1.772.019 2.384.092z"/><path d="m11.751 15.369-4.249 4.249.427.422.422.427 7.648-7.648 7.648 7.648.422-.427.427-.422-8.498-8.498-4.249 4.249z"/></symbol></defs></svg>