<svg aria-hidden="true" style="position: absolute; width: 0; height: 0; overflow: hidden;" version="1.1"
    xmlns="http://www.w3.org/2000/svg"
    xmlns:xlink="http://www.w3.org/1999/xlink">
    <defs>
        <symbol id="icon-close" viewBox="0 0 32 32">
            <path d="M17.253 16l7.369-7.369c0.146-0.17 0.222-0.389 0.213-0.613s-0.101-0.436-0.26-0.594c-0.158-0.158-0.37-0.251-0.594-0.26s-0.442 0.067-0.612 0.213l-7.369 7.369-7.369-7.378c-0.167-0.167-0.394-0.261-0.631-0.261s-0.464 0.094-0.631 0.261c-0.167 0.167-0.261 0.394-0.261 0.631s0.094 0.464 0.261 0.631l7.378 7.369-7.378 7.369c-0.093 0.080-0.169 0.178-0.222 0.288s-0.083 0.23-0.088 0.353c-0.005 0.123 0.016 0.245 0.061 0.359s0.112 0.218 0.199 0.304c0.087 0.087 0.19 0.154 0.304 0.199s0.236 0.065 0.359 0.060c0.122-0.005 0.243-0.035 0.353-0.088s0.208-0.129 0.288-0.222l7.378-7.369 7.369 7.369c0.17 0.146 0.389 0.222 0.612 0.213s0.436-0.101 0.594-0.26c0.158-0.158 0.251-0.37 0.26-0.594s-0.067-0.442-0.213-0.612l-7.369-7.369z"></path>
        </symbol>
        <symbol id="icon-bracket" viewBox="0 0 32 32">
            <path stroke-width="5.3333" stroke-miterlimit="4" stroke-linecap="round" stroke-linejoin="round" d="M10.667 5.333l13.2 10.667-13.2 10.667"></path>
        </symbol>
        <symbol id="icon-arrow" viewBox="0 0 82 32">
            <path d="M81.414 17.414c0.781-0.781 0.781-2.047 0-2.828l-12.728-12.728c-0.781-0.781-2.047-0.781-2.828 0s-0.781 2.047 0 2.828l11.314 11.314-11.314 11.314c-0.781 0.781-0.781 2.047 0 2.828s2.047 0.781 2.828 0l12.728-12.728zM0 18h80v-4h-80v4z"></path>
        </symbol>
        <symbol id="icon-pointer" viewBox="0 0 84 32">
            <path d="M82.643 17.191c0.781-0.781 0.781-2.047 0-2.828l-12.728-12.728c-0.781-0.781-2.047-0.781-2.828 0s-0.781 2.047 0 2.828l11.314 11.314-11.314 11.314c-0.781 0.781-0.781 2.047 0 2.829s2.047 0.781 2.828 0l12.728-12.728zM0.76 17.777h80.469v-4h-80.469v4z"></path>
        </symbol>
        <symbol id="icon-github" viewBox="0 0 32 32">
            <path d="M32 16c0 8.837-7.163 16-16 16s-16-7.163-16-16c0-8.837 7.163-16 16-16s16 7.163 16 16z"></path>
            <path d="M16 6.588c-5.169 0-9.412 4.242-9.412 9.412 0 4.411 3.095 8.419 7.206 9.412v-3.114c-0.407 0.089-0.782 0.092-1.197-0.030-0.556-0.164-1.008-0.535-1.344-1.1-0.214-0.361-0.593-0.752-0.988-0.723l-0.097-1.099c0.855-0.073 1.595 0.521 2.034 1.259 0.195 0.328 0.419 0.52 0.708 0.605 0.278 0.082 0.578 0.043 0.926-0.080 0.088-0.698 0.407-0.959 0.648-1.326v-0.001c-2.451-0.366-3.428-1.666-3.816-2.693-0.514-1.363-0.238-3.066 0.671-4.142 0.018-0.021 0.050-0.076 0.037-0.114-0.417-1.258 0.091-2.299 0.11-2.41 0.481 0.142 0.559-0.143 2.089 0.786l0.264 0.159c0.111 0.066 0.076 0.028 0.186 0.020 0.639-0.173 1.312-0.269 1.975-0.278 0.668 0.009 1.337 0.104 2.002 0.285l0.086 0.009c-0.007-0.001 0.023-0.005 0.075-0.036 1.911-1.157 1.842-0.779 2.355-0.946 0.019 0.111 0.519 1.169 0.107 2.411-0.056 0.171 1.657 1.739 0.708 4.256-0.388 1.027-1.365 2.328-3.816 2.693v0.001c0.314 0.479 0.692 0.734 0.69 1.722v3.887c4.111-0.993 7.206-5 7.206-9.412 0-5.169-4.242-9.412-9.412-9.412v0z"></path>
        </symbol>
        <symbol id="icon-telegram" viewBox="0 0 32 32">
            <path d="M32 16c0 8.837-7.163 16-16 16s-16-7.163-16-16c0-8.837 7.163-16 16-16s16 7.163 16 16z"></path>
            <path d="M12.867 18.375l-0.318 4.169c0.454 0 0.651-0.182 0.887-0.401l2.13-1.9 4.415 3.017c0.81 0.421 1.38 0.199 1.599-0.695l2.898-12.672 0.001-0.001c0.257-1.117-0.433-1.554-1.222-1.28l-17.032 6.086c-1.162 0.421-1.145 1.026-0.198 1.3l4.355 1.264 10.115-5.907c0.476-0.294 0.909-0.131 0.553 0.163l-8.182 6.857z"></path>
        </symbol>
        <symbol id="icon-facebook" viewBox="0 0 32 32">
            <path d="M16 32c8.837 0 16-7.163 16-16s-7.163-16-16-16c-8.837 0-16 7.163-16 16s7.163 16 16 16z"></path>
            <path d="M20.446 15.982h-2.61v9.619h-3.955v-9.619h-1.881v-3.38h1.881v-2.187c0-1.564 0.739-4.014 3.99-4.014l2.929 0.012v3.281h-2.125c-0.349 0-0.839 0.175-0.839 0.921v1.989h2.955l-0.346 3.377z"></path>
        </symbol>
        <symbol id="icon-menu" viewBox="0 0 32 32">
            <path stroke-width="2" stroke-miterlimit="4" stroke-linecap="round" stroke-linejoin="miter" style="stroke: var(--color4, #fff)" d="M6 10h20"></path>
            <path stroke-width="2" stroke-miterlimit="4" stroke-linecap="round" stroke-linejoin="miter" style="stroke: var(--color4, #fff)" d="M6 16h20"></path>
            <path stroke-width="2" stroke-miterlimit="4" stroke-linecap="round" stroke-linejoin="miter" style="stroke: var(--color4, #fff)" d="M6 22h20"></path>
        </symbol>
        <symbol id="icon-ep_close" viewBox="0 0 32 32">
            <path d="M23.884 6.706l-7.884 7.884-7.884-7.884c-0.19-0.174-0.439-0.267-0.696-0.261s-0.502 0.11-0.684 0.292c-0.182 0.182-0.286 0.427-0.292 0.684s0.088 0.506 0.261 0.696l7.88 7.884-7.882 7.882c-0.096 0.092-0.173 0.202-0.226 0.324s-0.081 0.253-0.083 0.386 0.023 0.265 0.073 0.388c0.050 0.123 0.124 0.235 0.218 0.329s0.206 0.169 0.329 0.219 0.255 0.075 0.388 0.074c0.133-0.002 0.264-0.029 0.386-0.082s0.232-0.13 0.324-0.226l7.886-7.882 7.884 7.884c0.19 0.174 0.439 0.267 0.696 0.262s0.502-0.11 0.684-0.292c0.182-0.182 0.286-0.427 0.292-0.684s-0.088-0.506-0.262-0.696l-7.884-7.884 7.884-7.886c0.096-0.092 0.173-0.202 0.226-0.324s0.081-0.253 0.083-0.386c0.002-0.133-0.023-0.265-0.073-0.388s-0.124-0.235-0.218-0.329c-0.094-0.094-0.206-0.169-0.329-0.219s-0.255-0.075-0.388-0.074-0.264 0.029-0.386 0.082c-0.122 0.053-0.232 0.13-0.324 0.226v0.002z"></path>
        </symbol>
        <symbol id="icon-scroll-to-top" viewBox="-1 -1 35 35">
            <path d="M14.422 0.296c-5.395 0.588-9.998 3.734-12.46 8.517-0.787 1.53-1.292 3.117-1.588 4.977-0.092 0.568-0.102 0.859-0.102 2.209 0 1.685 0.044 2.137 0.335 3.448 1.136 5.074 4.744 9.304 9.566 11.207 1.161 0.461 2.268 0.758 3.618 0.971 0.568 0.092 0.859 0.102 2.209 0.102 1.685 0 2.137-0.044 3.448-0.335 5.074-1.136 9.304-4.744 11.207-9.566 0.461-1.161 0.758-2.268 0.971-3.618 0.092-0.568 0.102-0.859 0.102-2.209 0-1.685-0.044-2.137-0.335-3.448-0.821-3.652-2.928-6.92-5.934-9.173-1.782-1.335-3.841-2.287-6.012-2.773-1.195-0.267-1.743-0.325-3.229-0.34-0.762-0.010-1.568 0.005-1.797 0.029zM17.704 1.53c3.292 0.393 6.245 1.826 8.59 4.176 2.394 2.389 3.792 5.312 4.205 8.789 0.073 0.626 0.073 2.384 0 3.011-0.413 3.477-1.811 6.4-4.205 8.789-1.831 1.835-4.098 3.147-6.531 3.783-1.326 0.35-2.37 0.481-3.763 0.481s-2.438-0.131-3.763-0.481c-3.355-0.879-6.385-3.049-8.342-5.982-1.345-2.010-2.093-4.079-2.394-6.589-0.073-0.626-0.073-2.384 0-3.011 0.413-3.477 1.811-6.4 4.205-8.789 2.583-2.588 5.88-4.050 9.615-4.268 0.5-0.029 1.772 0.019 2.384 0.092z"></path>
            <path d="M11.751 15.369l-4.249 4.249 0.427 0.422 0.422 0.427 7.648-7.648 7.648 7.648 0.422-0.427 0.427-0.422-8.498-8.498-4.249 4.249z"></path>
        </symbol>
        <symbol id="icon-arrow-right" viewBox="0 0 22 32">
            <path stroke-linejoin="round" stroke-linecap="round" stroke-miterlimit="4" stroke-width="6.4" d="M3.2 3.2l15.84 12.8-15.84 12.8"></path>
        </symbol>
    </defs>
</svg>
